<svg xmlns="http://www.w3.org/2000/svg" xmlns:xlink="http://www.w3.org/1999/xlink" version="1.1" x="0px" y="0px" viewBox="0 0 64 65">
  <g>
    <path d="M58,40h-2.586l2.944-2.943C61.352,34.062,63,30.083,63,25.849c0-7.41-5.118-13.63-12-15.357V7h2V1h-6v6h2v3.117   C48.392,10.046,47.777,10,47.151,10c-4.233,0-8.214,1.648-11.207,4.642L32,18.586l-3.944-3.944C25.063,11.648,21.083,10,16.849,10   C8.11,10,1,17.11,1,25.849c0,4.233,1.648,8.213,4.642,11.208l3.725,3.725L1.984,45l8.75,5h7.852L32,63.414L45.414,50H58   c2.757,0,5-2.243,5-5S60.757,40,58,40z M49,3h2v2h-2V3z M13,42h36v6H13V42z M51,42h2v6h-2V42z M3,25.849   C3,18.213,9.213,12,16.849,12c3.699,0,7.177,1.44,9.793,4.056L32,21.414l5.358-5.358C39.974,13.44,43.452,12,47.151,12   c0.628,0,1.243,0.057,1.849,0.138V29c0,4.411-3.589,8-8,8c-3.409,0-6.45-2.222-7.55-5.39C34.369,31.097,35,30.126,35,29   c0-1.466-1.059-2.685-2.451-2.945C31.27,21.865,27.449,19,23,19c-5.514,0-10,4.486-10,10v3h-2v6h6v-6h-2v-3c0-4.411,3.589-8,8-8   c3.409,0,6.45,2.222,7.55,5.39C29.631,26.903,29,27.874,29,29c0,1.466,1.059,2.685,2.451,2.945C32.73,36.135,36.551,39,41,39   c5.514,0,10-4.486,10-10V12.556c5.768,1.673,10,6.994,10,13.294c0,3.699-1.44,7.177-4.056,9.793L52.586,40H11.414l-4.358-4.357   C4.44,33.026,3,29.548,3,25.849z M32,28c0.551,0,1,0.449,1,1s-0.449,1-1,1s-1-0.449-1-1S31.449,28,32,28z M15,34v2h-2v-2H15z    M6.016,45L11,42.152v5.696L6.016,45z M32,60.586L21.414,50h21.172L32,60.586z M58,48h-3v-6h3c1.654,0,3,1.346,3,3S59.654,48,58,48   z"/>
    <rect x="37" y="28" width="2" height="2" fill="#FFCC00" />
    <rect x="41" y="28" width="2" height="2" fill="#FFCC00" />
    <rect x="45" y="28" width="2" height="2" fill="#FFCC00" />
    <rect x="25" y="28" width="2" height="2" fill="#FFCC00" />
    <rect x="21" y="28" width="2" height="2" fill="#FFCC00" />
    <rect x="17" y="28" width="2" height="2" fill="#FFCC00" />
  </g>
</svg>
