<svg xmlns="http://www.w3.org/2000/svg" xmlns:xlink="http://www.w3.org/1999/xlink" version="1.1" x="0px" y="0px" viewBox="0 0 65 65">
  <g><g>
    <path d="M21.4,50.9h-4.1c-1.7,0-3.2-1.4-3.2-3.2V35.6c0-0.6-0.4-1-1-1s-1,0.4-1,1v12.1c0,2.8,2.3,5.2,5.2,5.2h4.1c0.6,0,1-0.4,1-1    S21.9,50.9,21.4,50.9z" fill="#FFCC00"/>
    <path d="M43.6,14.1h4.1c1.7,0,3.2,1.4,3.2,3.2v9.2c0,0.6,0.4,1,1,1s1-0.4,1-1v-9.2c0-2.8-2.3-5.2-5.2-5.2h-4.1c-0.6,0-1,0.4-1,1    S43,14.1,43.6,14.1z" fill="#FFCC00"/>
    <path d="M63.5,26.1c0.6,0,1-0.4,1-1s-0.4-1-1-1h-6.6v-5.4h6.6c0.6,0,1-0.4,1-1s-0.4-1-1-1h-6.6v-2.1c0-3.6-2.9-6.4-6.4-6.4h-2.1    V1.5c0-0.6-0.4-1-1-1s-1,0.4-1,1v6.6h-5.4V1.5c0-0.6-0.4-1-1-1s-1,0.4-1,1v6.6h-5.4V1.5c0-0.6-0.4-1-1-1s-1,0.4-1,1v6.6h-5.4V1.5    c0-0.6-0.4-1-1-1s-1,0.4-1,1v6.6h-5.4V1.5c0-0.6-0.4-1-1-1s-1,0.4-1,1v6.6h-2.1c-3.6,0-6.4,2.9-6.4,6.4v2.1H1.5c-0.6,0-1,0.4-1,1    s0.4,1,1,1h6.6v5.4H1.5c-0.6,0-1,0.4-1,1s0.4,1,1,1h6.6v5.4H1.5c-0.6,0-1,0.4-1,1s0.4,1,1,1h6.6v5.4H1.5c-0.6,0-1,0.4-1,1    s0.4,1,1,1h6.6v5.4H1.5c-0.6,0-1,0.4-1,1s0.4,1,1,1h6.6v2.1c0,3.6,2.9,6.4,6.4,6.4h2.1v6.6c0,0.6,0.4,1,1,1s1-0.4,1-1v-6.6h5.4    v6.6c0,0.6,0.4,1,1,1s1-0.4,1-1v-6.6h5.4v6.6c0,0.6,0.4,1,1,1s1-0.4,1-1v-6.6h5.4v6.6c0,0.6,0.4,1,1,1s1-0.4,1-1v-6.6h5.4v6.6    c0,0.6,0.4,1,1,1s1-0.4,1-1v-6.6h2.1c3.6,0,6.4-2.9,6.4-6.4v-2.1h6.6c0.6,0,1-0.4,1-1s-0.4-1-1-1h-6.6v-5.4h6.6c0.6,0,1-0.4,1-1    s-0.4-1-1-1h-6.6v-5.4h6.6c0.6,0,1-0.4,1-1s-0.4-1-1-1h-6.6v-5.4H63.5z M54.9,50.5c0,2.5-2,4.4-4.4,4.4H14.5c-2.5,0-4.4-2-4.4-4.4    v-21h7l2.8,2.8h5.8c0.3,2,2,3.6,4.1,3.6c2.3,0,4.2-1.9,4.2-4.2s-1.9-4.2-4.2-4.2c-1.8,0-3.3,1.2-3.9,2.8h-5.2l-2.8-2.8h-7.8V24    h6.4l6.6-5.2h9.7c0.5,1.8,2.1,3.2,4.1,3.2c2.3,0,4.2-1.9,4.2-4.2s-1.9-4.2-4.2-4.2c-2,0-3.6,1.4-4.1,3.2H22.4L15.8,22h-5.7v-7.5    c0-2.5,2-4.4,4.4-4.4h35.9c2.5,0,4.4,2,4.4,4.4v18.1H44.1l-3.6,3.6c-0.6-0.4-1.4-0.6-2.2-0.6c-2.3,0-4.2,1.9-4.2,4.2    s1.9,4.2,4.2,4.2s4.2-1.9,4.2-4.2c0-0.8-0.2-1.5-0.6-2.2l3-3h10v9.5H44l-2.7,2.7h-7.8l-3.1-3.1h-2.9c-0.5-1.8-2.1-3.2-4.1-3.2    c-2.3,0-4.2,1.9-4.2,4.2s1.9,4.2,4.2,4.2c2,0,3.6-1.4,4.1-3.2h2l3.1,3.1h9.5l2.7-2.7h10.1V50.5z M27.6,31.7c0-1.2,1-2.2,2.2-2.2    s2.2,1,2.2,2.2s-1,2.2-2.2,2.2S27.6,32.9,27.6,31.7z M34.7,17.8c0-1.2,1-2.2,2.2-2.2s2.2,1,2.2,2.2c0,1.2-1,2.2-2.2,2.2    S34.7,19,34.7,17.8z M40.6,39.8c0,1.2-1,2.2-2.2,2.2s-2.2-1-2.2-2.2s1-2.2,2.2-2.2S40.6,38.6,40.6,39.8z M25.6,44.7    c0,1.2-1,2.2-2.2,2.2s-2.2-1-2.2-2.2s1-2.2,2.2-2.2S25.6,43.5,25.6,44.7z"/>
  </g></g>
</svg>
