<svg xmlns="http://www.w3.org/2000/svg" xmlns:xlink="http://www.w3.org/1999/xlink" version="1.1" x="0px" y="0px" viewBox="10 30 80 40">
  <g>
  <g><g><path fill="#080705" d="M17.735,55.377c-0.36,0-0.652-0.292-0.652-0.652v-9.451c0-0.36,0.292-0.652,0.652-0.652     c0.36,0,0.652,0.292,0.652,0.652v9.451C18.387,55.086,18.096,55.377,17.735,55.377z"/>
  </g></g>
  <g><g><path fill="#080705" d="M23.602,58.962c-0.36,0-0.652-0.292-0.652-0.652V41.689c0-0.36,0.292-0.652,0.652-0.652     c0.36,0,0.652,0.292,0.652,0.652v16.621C24.254,58.671,23.962,58.962,23.602,58.962z"/>
  </g></g>
  <g><g><path fill="#FFCC00" d="M29.468,69.065c-0.36,0-0.652-0.292-0.652-0.652V31.586c0-0.36,0.292-0.652,0.652-0.652     s0.652,0.292,0.652,0.652v36.827C30.12,68.774,29.829,69.065,29.468,69.065z"/>
  </g></g>
  <g><g><path fill="#080705" d="M35.334,60.918c-0.36,0-0.652-0.292-0.652-0.652V39.734c0-0.36,0.292-0.652,0.652-0.652     s0.652,0.292,0.652,0.652v20.532C35.986,60.626,35.695,60.918,35.334,60.918z"/>
  </g></g>
  <g><g><path fill="#080705" d="M41.201,55.377c-0.36,0-0.652-0.292-0.652-0.652v-9.451c0-0.36,0.292-0.652,0.652-0.652     s0.652,0.292,0.652,0.652v9.451C41.853,55.086,41.561,55.377,41.201,55.377z"/>
  </g></g>
  <g><g><path fill="#FFCC00" d="M47.067,60.918c-0.36,0-0.652-0.292-0.652-0.652V39.734c0-0.36,0.292-0.652,0.652-0.652     c0.36,0,0.652,0.292,0.652,0.652v20.532C47.719,60.626,47.427,60.918,47.067,60.918z"/>
  </g></g>
  <g><g><path fill="#080705" d="M52.934,65.969c-0.36,0-0.652-0.292-0.652-0.652V34.683c0-0.36,0.292-0.652,0.652-0.652     c0.36,0,0.651,0.292,0.651,0.652v30.635C53.585,65.678,53.293,65.969,52.934,65.969z"/>
  </g></g>
  <g><g><path fill="#080705" d="M58.8,58.962c-0.36,0-0.652-0.292-0.652-0.652V41.689c0-0.36,0.292-0.652,0.652-0.652     s0.652,0.292,0.652,0.652v16.621C59.452,58.671,59.16,58.962,58.8,58.962z"/>
  </g></g>
  <g><g><path fill="#080705" d="M64.666,61.57c-0.36,0-0.652-0.292-0.652-0.652V39.082c0-0.36,0.292-0.652,0.652-0.652     s0.652,0.292,0.652,0.652v21.836C65.318,61.278,65.026,61.57,64.666,61.57z"/>
  </g></g>
  <g><g><path fill="#080705" d="M70.532,65.969c-0.36,0-0.652-0.292-0.652-0.652V34.683c0-0.36,0.292-0.652,0.652-0.652     s0.652,0.292,0.652,0.652v30.635C71.184,65.678,70.893,65.969,70.532,65.969z"/>
  </g></g>
  <g><g><path fill="#FFCC00" d="M76.398,55.377c-0.36,0-0.652-0.292-0.652-0.652v-9.451c0-0.36,0.292-0.652,0.652-0.652     c0.36,0,0.652,0.292,0.652,0.652v9.451C77.05,55.086,76.759,55.377,76.398,55.377z"/>
  </g></g>
  <g><g><path fill="#080705" d="M82.265,58.147c-0.36,0-0.652-0.292-0.652-0.652V42.504c0-0.36,0.292-0.651,0.652-0.651     c0.36,0,0.651,0.292,0.651,0.651v14.992C82.917,57.856,82.625,58.147,82.265,58.147z"/>
  </g></g>
  </g>
</svg>
