<svg xmlns="http://www.w3.org/2000/svg" xmlns:xlink="http://www.w3.org/1999/xlink" version="1.1" x="0px" y="0px" viewBox="10 10 80 80">
  <path d="M84.7192383,52.7109375c-2.5691528,0-4.7097168,1.8463745-5.1791382,4.2802734H71.75V50.25h4.1254883  c0.5522461,0,1-0.4472656,1-1s-0.4477539-1-1-1H71.75v-6.9169922h9.9472656l6.7480469,4.4990234  C88.6157227,45.9453125,88.8085938,46,88.9990234,46c0.3232422,0,0.6401367-0.15625,0.8330078-0.4453125  c0.3061523-0.4599609,0.1821289-1.0800781-0.2773438-1.3867188l-7-4.6669922  C82.390625,39.3916016,82.1972656,39.3330078,82,39.3330078H71.75V29.25c0-0.5527344-0.4477539-1-1-1H58.9912109v-7.7896118  c2.4342041-0.4694214,4.2802734-2.6104736,4.2802734-5.1801147C63.2714844,12.3691406,60.902832,10,57.9912109,10  s-5.2807617,2.3691406-5.2807617,5.2802734c0,2.5696411,1.8464355,4.7106934,4.2807617,5.1801147V28.25H50.25v-4.1259766  c0-0.5527344-0.4477539-1-1-1s-1,0.4472656-1,1V28.25h-6.9165039v-9.9472656l4.4985352-6.7480469  c0.3061523-0.4599609,0.1821289-1.0800781-0.2773438-1.3867188c-0.4604492-0.3056641-1.0805664-0.1826172-1.3867188,0.2773438  l-4.6665039,7C39.3920898,17.609375,39.3334961,17.8027344,39.3334961,18v10.25H29.25c-0.5522461,0-1,0.4472656-1,1v11.7587891  h-7.7901001c-0.4694214-2.4338989-2.6099854-4.2802734-5.1791382-4.2802734C12.3691406,36.7285156,10,39.0976562,10,42.0087891  s2.3691406,5.2802734,5.2807617,5.2802734c2.5691528,0,4.7097168-1.8463745,5.1791382-4.2802734H28.25V49.75h-4.1254883  c-0.5522461,0-1,0.4472656-1,1s0.4477539,1,1,1H28.25v6.9169922h-9.9472656l-6.7480469-4.4990234  c-0.4604492-0.3066406-1.0810547-0.1826172-1.3867188,0.2773438c-0.3061523,0.4599609-0.1821289,1.0800781,0.2773438,1.3867188  l7,4.6669922C17.609375,60.6083984,17.8027344,60.6669922,18,60.6669922h10.25V70.75c0,0.5527344,0.4477539,1,1,1h11.7587891  v7.7896118c-2.4342041,0.4694214-4.2802734,2.6104736-4.2802734,5.1801147C36.7285156,87.6308594,39.097168,90,42.0087891,90  s5.2807617-2.3691406,5.2807617-5.2802734c0-2.5696411-1.8464355-4.7106934-4.2807617-5.1801147V71.75H49.75v4.1259766  c0,0.5527344,0.4477539,1,1,1s1-0.4472656,1-1V71.75h6.9165039v9.9472656l-4.4985352,6.7480469  c-0.3061523,0.4599609-0.1821289,1.0800781,0.2773438,1.3867188C54.6157227,89.9453125,54.8085938,90,54.9990234,90  c0.3232422,0,0.6401367-0.15625,0.8330078-0.4453125l4.6665039-7C60.6079102,82.390625,60.6665039,82.1972656,60.6665039,82V71.75  H70.75c0.5522461,0,1-0.4472656,1-1V58.9912109h7.7901001c0.4694214,2.4338989,2.6099854,4.2802734,5.1791382,4.2802734  C87.6308594,63.2714844,90,60.9023438,90,57.9912109S87.6308594,52.7109375,84.7192383,52.7109375z M54.7104492,15.2802734  C54.7104492,13.4716797,56.1821289,12,57.9912109,12c1.8085938,0,3.2802734,1.4716797,3.2802734,3.2802734  c0,1.8095703-1.4716797,3.28125-3.2802734,3.28125C56.1821289,18.5615234,54.7104492,17.0898438,54.7104492,15.2802734z   M15.2807617,45.2890625C13.4716797,45.2890625,12,43.8173828,12,42.0087891s1.4716797-3.2802734,3.2807617-3.2802734  c1.8085938,0,3.2802734,1.4716797,3.2802734,3.2802734S17.0893555,45.2890625,15.2807617,45.2890625z M45.2895508,84.7197266  C45.2895508,86.5283203,43.8178711,88,42.0087891,88c-1.8085938,0-3.2802734-1.4716797-3.2802734-3.2802734  c0-1.8095703,1.4716797-3.28125,3.2802734-3.28125C43.8178711,81.4384766,45.2895508,82.9101562,45.2895508,84.7197266z   M69.75,69.75h-39.5v-39.5h39.5V69.75z M84.7192383,61.2714844c-1.8085938,0-3.2802734-1.4716797-3.2802734-3.2802734  s1.4716797-3.2802734,3.2802734-3.2802734C86.5283203,54.7109375,88,56.1826172,88,57.9912109  S86.5283203,61.2714844,84.7192383,61.2714844z"/><path d="M38.246582,62.7539062H61.753418c0.5522461,0,1-0.4472656,1-1V38.2460938c0-0.5527344-0.4477539-1-1-1H38.246582  c-0.5522461,0-1,0.4472656-1,1v23.5078125C37.246582,62.3066406,37.6943359,62.7539062,38.246582,62.7539062z M39.246582,39.2460938  H60.753418v21.5078125H39.246582V39.2460938z"/>
</svg>
