<svg xmlns="http://www.w3.org/2000/svg" xmlns:xlink="http://www.w3.org/1999/xlink" version="1.1" x="0px" y="0px" viewBox="0 0 65 65">
  <g><g>
    <path d="M63.5,52.4h-7.4v-8.3c2.6-0.5,4.6-2.8,4.6-5.5s-2-5-4.6-5.5v-3.6c0-0.6-0.4-1-1-1H40.8l-7.3-7.3v-5.4h13.3    c0.6,0,1-0.4,1-1V2.6c0-0.6-0.4-1-1-1H18.2c-0.6,0-1,0.4-1,1v12.3c0,0.6,0.4,1,1,1h13.3v5.4l-7.3,7.3H9.9c-0.6,0-1,0.4-1,1v3.6    c-2.6,0.5-4.6,2.8-4.6,5.5s2,5,4.6,5.5v8.3H1.5c-0.6,0-1,0.4-1,1v9c0,0.6,0.4,1,1,1h16.8c0.6,0,1-0.4,1-1v-9c0-0.6-0.4-1-1-1h-7.4    v-8.3c2.6-0.5,4.6-2.8,4.6-5.5s-2-5-4.6-5.5v-2.6h13.3l7.3,7.3v6.6h-3.9c-2.5,0-4.5,2-4.5,4.5c0,2.5,2,4.5,4.5,4.5h9.8    c2.5,0,4.5-2,4.5-4.5v0c0-2.5-2-4.5-4.5-4.5h-3.9v-6.6l7.3-7.3h13.3v2.6c-2.6,0.5-4.6,2.8-4.6,5.5s2,5,4.6,5.5v8.3h-7.4    c-0.6,0-1,0.4-1,1v9c0,0.6,0.4,1,1,1h16.8c0.6,0,1-0.4,1-1v-9C64.5,52.8,64.1,52.4,63.5,52.4z M19.2,3.6h26.7v10.3H19.2V3.6z     M17.3,61.4H2.5v-7h14.8V61.4z M13.5,38.6c0,2-1.6,3.6-3.6,3.6s-3.6-1.6-3.6-3.6S7.9,35,9.9,35S13.5,36.6,13.5,38.6z M39.9,48.9    L39.9,48.9c0,1.4-1.1,2.5-2.5,2.5h-9.8c-1.4,0-2.5-1.1-2.5-2.5c0-1.4,1.1-2.5,2.5-2.5h9.8C38.8,46.4,39.9,47.5,39.9,48.9z     M32.5,36l-6.4-6.4l6.4-6.4l6.4,6.4L32.5,36z M51.5,38.6c0-2,1.6-3.6,3.6-3.6s3.6,1.6,3.6,3.6s-1.6,3.6-3.6,3.6    S51.5,40.6,51.5,38.6z M62.5,61.4H47.7v-7h14.8V61.4z"/>
    <path d="M26.4,7.7h-4.3c-0.6,0-1,0.4-1,1s0.4,1,1,1h4.3c0.6,0,1-0.4,1-1S27,7.7,26.4,7.7z" fill="#FFCC00"/>
    <path d="M35.7,8.7c0-0.6-0.4-1-1-1h-4.3c-0.6,0-1,0.4-1,1s0.4,1,1,1h4.3C35.2,9.7,35.7,9.3,35.7,8.7z" fill="#FFCC00"/>
    <path d="M38.6,9.7h4.3c0.6,0,1-0.4,1-1s-0.4-1-1-1h-4.3c-0.6,0-1,0.4-1,1S38,9.7,38.6,9.7z" fill="#FFCC00"/>
  </g></g>
</svg>
