<svg xmlns:dc="http://purl.org/dc/elements/1.1/" xmlns:cc="http://creativecommons.org/ns#" xmlns:rdf="http://www.w3.org/1999/02/22-rdf-syntax-ns#" xmlns:svg="http://www.w3.org/2000/svg" xmlns="http://www.w3.org/2000/svg" xmlns:sodipodi="http://sodipodi.sourceforge.net/DTD/sodipodi-0.dtd" xmlns:inkscape="http://www.inkscape.org/namespaces/inkscape" viewBox="0 0 32 40.00000125" version="1.1" x="0px" y="0px">
<g transform="translate(0,-1020.3622)">
  <path style="opacity:1;fill:none;fill-opacity:1;stroke:#000000;stroke-width:1;stroke-linecap:butt;stroke-linejoin:round;stroke-miterlimit:4;stroke-dasharray:none;stroke-dashoffset:0;stroke-opacity:1" d="M 20.5,1048.8622 H 16 4.5 c -0.554,0 -1,-0.446 -1,-1 v -14.5 m 0,-3 v -5.5 c 0,-0.554 0.446,-1 1,-1 h 23 c 0.554,0 1,0.446 1,1 v 23 c 0,0.554 -0.446,1 -1,1 h -4"/>
  <circle transform="scale(-1)" style="opacity:1;fill:none;fill-opacity:1;stroke:#000000;stroke-width:1;stroke-linecap:butt;stroke-linejoin:round;stroke-miterlimit:4;stroke-dasharray:none;stroke-dashoffset:0;stroke-opacity:1" cx="-25.25" cy="-1045.6122" r="1"/>
  <circle r="1" cy="-1045.6122" cx="6.75" style="opacity:1;fill:none;fill-opacity:1;stroke:#FFCC00;stroke-width:1;stroke-linecap:butt;stroke-linejoin:round;stroke-miterlimit:4;stroke-dasharray:none;stroke-dashoffset:0;stroke-opacity:1" transform="scale(1,-1)"/>
  <circle r="1" cy="1027.1122" cx="-25.25" style="opacity:1;fill:none;fill-opacity:1;stroke:#000000;stroke-width:1;stroke-linecap:butt;stroke-linejoin:round;stroke-miterlimit:4;stroke-dasharray:none;stroke-dashoffset:0;stroke-opacity:1" transform="scale(-1,1)"/>
  <circle style="opacity:1;fill:none;fill-opacity:1;stroke:#FFCC00;stroke-width:1;stroke-linecap:butt;stroke-linejoin:round;stroke-miterlimit:4;stroke-dasharray:none;stroke-dashoffset:0;stroke-opacity:1" cx="6.75" cy="1027.1122" r="1"/>
  <rect style="opacity:1;fill:none;fill-opacity:1;stroke:#FFCC00;stroke-width:1;stroke-linecap:butt;stroke-linejoin:round;stroke-miterlimit:4;stroke-dasharray:none;stroke-dashoffset:0;stroke-opacity:1" width="8.5" height="14" x="11.75" y="1029.3622" ry="1" rx="1"/>
  <rect style="opacity:1;fill:none;fill-opacity:1;stroke:#000000;stroke-width:1;stroke-linecap:butt;stroke-linejoin:miter;stroke-miterlimit:4;stroke-dasharray:none;stroke-dashoffset:0;stroke-opacity:1" width="4.5" height="5" x="13.75" y="1036.3622"/>
  <circle style="opacity:1;fill:none;fill-opacity:1;stroke:#000000;stroke-width:1;stroke-linecap:butt;stroke-linejoin:miter;stroke-miterlimit:4;stroke-dasharray:none;stroke-dashoffset:0;stroke-opacity:1" cx="16" cy="1032.3622" r="1"/>
  <path style="" d="m 22.5,1048.8622 h -1" fill="none" stroke="#FFCC00" stroke-width="1px" stroke-linecap="butt" stroke-linejoin="miter" stroke-opacity="1"/>
  <path style="" d="m 3.5,1031.3622 v 1" fill="none" stroke="#000000" stroke-width="1px" stroke-linecap="butt" stroke-linejoin="miter" stroke-opacity="1"/>
  <path style="" d="m 16,1036.3622 v 2" fill="none" stroke="#FFCC00" stroke-width="1px" stroke-linecap="butt" stroke-linejoin="miter" stroke-opacity="1"/>
</g>
</svg>
